<?xml version="1.0" encoding="UTF-8" standalone="no"?>
<!-- Created with Inkscape (http://www.inkscape.org/) -->

<svg
   xmlns:dc="http://purl.org/dc/elements/1.1/"
   xmlns:cc="http://creativecommons.org/ns#"
   xmlns:rdf="http://www.w3.org/1999/02/22-rdf-syntax-ns#"
   xmlns:svg="http://www.w3.org/2000/svg"
   xmlns="http://www.w3.org/2000/svg"
   xmlns:sodipodi="http://sodipodi.sourceforge.net/DTD/sodipodi-0.dtd"
   xmlns:inkscape="http://www.inkscape.org/namespaces/inkscape"
   width="37.315845mm"
   height="32.840893mm"
   viewBox="0 0 37.315845 32.840893"
   version="1.1"
   id="svg8"
   inkscape:export-filename="C:\Users\sande\Desktop\artstation.png"
   inkscape:export-xdpi="84.400002"
   inkscape:export-ydpi="84.400002"
   inkscape:version="0.92.3 (2405546, 2018-03-11)"
   sodipodi:docname="artstation.svg">
  <defs
     id="defs2">
    <clipPath
       id="clipPath3729"
       clipPathUnits="userSpaceOnUse">
      <path
         inkscape:connector-curvature="0"
         id="path3727"
         d="M 0,195.911 H 208.792 V 0 H 0 Z" />
    </clipPath>
    <clipPath
       id="clipPath3776"
       clipPathUnits="userSpaceOnUse">
      <path
         inkscape:connector-curvature="0"
         id="path3774"
         d="M 0,500 H 500 V 0 H 0 Z" />
    </clipPath>
    <clipPath
       id="clipPath3875"
       clipPathUnits="userSpaceOnUse">
      <path
         inkscape:connector-curvature="0"
         id="path3873"
         d="M 0,195.911 H 623.833 V 0 H 0 Z" />
    </clipPath>
  </defs>
  <sodipodi:namedview
     id="base"
     pagecolor="#ffffff"
     bordercolor="#666666"
     borderopacity="1.0"
     inkscape:pageopacity="0.0"
     inkscape:pageshadow="2"
     inkscape:zoom="2.8"
     inkscape:cx="148.47713"
     inkscape:cy="-35.842574"
     inkscape:document-units="mm"
     inkscape:current-layer="layer1"
     showgrid="false"
     inkscape:window-width="2736"
     inkscape:window-height="1699"
     inkscape:window-x="-13"
     inkscape:window-y="-13"
     inkscape:window-maximized="1" />
  <metadata
     id="metadata5">
    <rdf:RDF>
      <cc:Work
         rdf:about="">
        <dc:format>image/svg+xml</dc:format>
        <dc:type
           rdf:resource="http://purl.org/dc/dcmitype/StillImage" />
        <dc:title></dc:title>
      </cc:Work>
    </rdf:RDF>
  </metadata>
  <g
     inkscape:label="Layer 1"
     inkscape:groupmode="layer"
     id="layer1"
     transform="translate(-2.5087455,-3.5230085)">
    <g
       transform="matrix(0.35277777,0,0,-0.35277777,-15.630276,54.470539)"
       inkscape:label="ArtStation-logomark-white"
       id="g3721">
      <g
         id="g3723">
        <g
           clip-path="url(#clipPath3729)"
           id="g3725">
          <g
             transform="translate(51.4177,72.6479)"
             id="g3731">
            <path
               inkscape:connector-curvature="0"
               id="path3733"
               style="fill:#13aff0;fill-opacity:1;fill-rule:nonzero;stroke:none"
               d="m 0,0 8.935,-15.445 0.002,-10e-4 c 1.76,-3.485 5.37,-5.876 9.54,-5.876 h 0.008 v 0 H 77.786 L 65.48,0 Z" />
          </g>
          <g
             transform="translate(157.1949,72.5382)"
             id="g3735">
            <path
               inkscape:connector-curvature="0"
               id="path3737"
               style="fill:#13aff0;fill-opacity:1;fill-rule:nonzero;stroke:none"
               d="M 0,0 C 0,2.135 -0.629,4.123 -1.708,5.792 L -36.458,66.2 c -1.794,3.378 -5.347,5.68 -9.44,5.68 h -18.365 l 53.676,-93.001 8.461,14.655 C -0.457,-3.659 0,-2.417 0,0" />
          </g>
          <g
             transform="translate(108.1461,87.798)"
             id="g3739">
            <path
               inkscape:connector-curvature="0"
               id="path3741"
               style="fill:#13aff0;fill-opacity:1;fill-rule:nonzero;stroke:none"
               d="M 0,0 -23.991,41.553 -47.982,0 Z" />
          </g>
        </g>
      </g>
    </g>
    <g
       transform="matrix(0.35277777,0,0,-0.35277777,-70.429787,102.452)"
       inkscape:label="ArtStation-logo-horizontal-white"
       id="g3863">
      <g
         transform="translate(198.6186,92.2899)"
         id="g3865">
        <path
           inkscape:connector-curvature="0"
           id="path3867"
           style="fill:#121d21;fill-opacity:1;fill-rule:nonzero;stroke:none"
           d="M 0,0 H 12.401 L 6.091,19.726 Z M 10.95,31.329 28.066,-19.653 H 18.638 L 15.012,-8.34 H -2.611 l -3.48,-11.313 h -9.428 L 1.595,31.329 Z" />
      </g>
      <g
         id="g3869">
        <g
           clip-path="url(#clipPath3875)"
           id="g3871">
          <g
             transform="translate(243.2898,115.0611)"
             id="g3877">
            <path
               inkscape:connector-curvature="0"
               id="path3879"
               style="fill:#121d21;fill-opacity:1;fill-rule:nonzero;stroke:none"
               d="m 0,0 v -16.244 h 11.386 c 3.046,0 5.512,1.74 5.512,4.714 v 6.743 C 16.898,-1.668 14.287,0 11.024,0 Z M -9.427,-42.424 V 8.412 h 21.538 c 8.848,0 14.142,-5.366 14.142,-11.168 v -10.805 c 0,-4.062 -2.756,-8.05 -7.542,-9.935 l 8.557,-18.928 h -9.862 l -8.051,17.84 H 0 v -17.84 z" />
          </g>
          <g
             transform="translate(288.1797,72.6366)"
             id="g3881">
            <path
               inkscape:connector-curvature="0"
               id="path3883"
               style="fill:#121d21;fill-opacity:1;fill-rule:nonzero;stroke:none"
               d="m 0,0 v 42.497 h -12.618 v 8.34 h 33.577 v -8.34 H 9.355 V 0 Z" />
          </g>
          <g
             transform="translate(320.5231,87.1404)"
             id="g3885">
            <path
               inkscape:connector-curvature="0"
               id="path3887"
               style="fill:#121d21;fill-opacity:1;fill-rule:nonzero;stroke:none"
               d="m 0,0 v -3.263 c 0,-4.496 4.206,-7.905 9.646,-7.905 h 6.018 c 5.585,0 9.936,2.684 9.936,7.397 v 3.554 c 0,7.832 -28.065,9.283 -28.065,22.699 v 4.568 c 0,5.15 4.858,9.646 11.385,9.646 h 6.744 c 7.325,0 12.691,-4.859 12.691,-10.443 v -4.569 h -4.206 v 3.844 c 0,4.206 -3.916,7.397 -8.847,7.397 H 9.5 c -4.279,0 -7.76,-2.828 -7.76,-6.527 V 22.699 C 1.74,12.692 29.806,11.386 29.806,0.363 v -4.859 c 0,-6.382 -5.874,-10.443 -13.779,-10.443 H 9.5 c -7.905,0 -13.706,5.076 -13.706,11.024 V 0 Z" />
          </g>
          <g
             transform="translate(371.2875,72.6366)"
             id="g3889">
            <path
               inkscape:connector-curvature="0"
               id="path3891"
               style="fill:#121d21;fill-opacity:1;fill-rule:nonzero;stroke:none"
               d="m 0,0 v 47.066 h -14.214 v 3.698 H 17.768 V 47.066 H 4.206 V 0 Z" />
          </g>
          <g
             transform="translate(400.7289,92.7245)"
             id="g3893">
            <path
               inkscape:connector-curvature="0"
               id="path3895"
               style="fill:#121d21;fill-opacity:1;fill-rule:nonzero;stroke:none"
               d="M 0,0 H 17.695 L 8.848,25.6 Z M 11.023,31.039 28.936,-20.088 H 24.657 L 19.001,-3.771 H -1.306 L -6.89,-20.088 h -4.278 L 6.817,31.039 Z" />
          </g>
          <g
             transform="translate(444.5327,72.6366)"
             id="g3897">
            <path
               inkscape:connector-curvature="0"
               id="path3899"
               style="fill:#121d21;fill-opacity:1;fill-rule:nonzero;stroke:none"
               d="m 0,0 v 47.066 h -14.214 v 3.698 H 17.768 V 47.066 H 4.206 V 0 Z" />
          </g>
          <path
             inkscape:connector-curvature="0"
             id="path3901"
             style="fill:#121d21;fill-opacity:1;fill-rule:nonzero;stroke:none"
             d="m 471.727,123.401 h 4.206 V 72.637 h -4.206 z" />
          <g
             transform="translate(511.7564,75.9722)"
             id="g3903">
            <path
               inkscape:connector-curvature="0"
               id="path3905"
               style="fill:#121d21;fill-opacity:1;fill-rule:nonzero;stroke:none"
               d="m 0,0 c 4.497,0 8.05,3.409 8.05,7.905 v 28.283 c 0,4.497 -3.553,7.905 -8.05,7.905 h -9.5 c -4.496,0 -8.05,-3.408 -8.05,-7.905 V 7.905 C -17.55,3.409 -13.996,0 -9.5,0 Z m -9.717,-3.771 c -6.963,0 -12.039,5.077 -12.039,11.024 v 29.588 c 0,5.946 5.076,11.023 12.039,11.023 h 10.08 c 6.89,0 11.893,-5.077 11.893,-11.023 V 7.253 C 12.256,1.306 7.253,-3.771 0.363,-3.771 Z" />
          </g>
          <g
             transform="translate(538.0801,72.6366)"
             id="g3907">
            <path
               inkscape:connector-curvature="0"
               id="path3909"
               style="fill:#121d21;fill-opacity:1;fill-rule:nonzero;stroke:none"
               d="M 0,0 V 50.764 H 4.351 L 29.806,7.397 v 43.44 h 4.206 V 0 H 29.661 L 4.206,43.44 V 0 Z" />
          </g>
          <g
             transform="translate(51.4177,72.6479)"
             id="g3911">
            <path
               inkscape:connector-curvature="0"
               id="path3913"
               style="fill:#13aff0;fill-opacity:1;fill-rule:nonzero;stroke:none"
               d="m 0,0 8.935,-15.445 0.002,-10e-4 c 1.76,-3.485 5.37,-5.876 9.54,-5.876 h 0.008 v 0 H 77.786 L 65.48,0 Z" />
          </g>
          <g
             transform="translate(157.1949,72.5382)"
             id="g3915">
            <path
               inkscape:connector-curvature="0"
               id="path3917"
               style="fill:#13aff0;fill-opacity:1;fill-rule:nonzero;stroke:none"
               d="M 0,0 C 0,2.135 -0.629,4.123 -1.708,5.792 L -36.458,66.2 c -1.794,3.378 -5.347,5.68 -9.44,5.68 h -18.365 l 53.676,-93.001 8.461,14.655 C -0.457,-3.659 0,-2.417 0,0" />
          </g>
          <g
             transform="translate(108.1461,87.798)"
             id="g3919">
            <path
               inkscape:connector-curvature="0"
               id="path3921"
               style="fill:#13aff0;fill-opacity:1;fill-rule:nonzero;stroke:none"
               d="M 0,0 -23.991,41.553 -47.982,0 Z" />
          </g>
        </g>
      </g>
    </g>
  </g>
</svg>
